<svg width="22" height="16" fill="none" xmlns="http://www.w3.org/2000/svg"><path d="M17.812 12.26a.352.352 0 01-.242-.097l-4.082-3.83a.354.354 0 11.486-.516l4.082 3.83a.354.354 0 01-.244.612zm-13.625 0a.355.355 0 01-.243-.614l4.083-3.829a.355.355 0 01.486.516l-4.083 3.83a.351.351 0 01-.243.096z" fill="#D1A954"/><path d="M20.227 15.82H1.774A1.775 1.775 0 010 14.046V1.953C0 .975.796.179 1.774.179h18.453A1.777 1.777 0 0122 1.953v12.093c0 .978-.796 1.774-1.773 1.774zM1.774.889c-.587 0-1.065.477-1.065 1.064v12.093c0 .587.478 1.064 1.065 1.064h18.453c.586 0 1.064-.477 1.064-1.064V1.953c0-.587-.478-1.064-1.064-1.064H1.774z" fill="#D1A954"/><path d="M11 9.782c-.472 0-.944-.157-1.303-.47L.59 1.366a.356.356 0 01-.035-.5.357.357 0 01.5-.035l9.11 7.946c.453.395 1.219.395 1.672 0L20.933.844a.355.355 0 01.467.535l-9.098 7.933c-.36.313-.83.47-1.302.47z" fill="#D1A954"/></svg>