<svg width="50" height="50" fill="none" xmlns="http://www.w3.org/2000/svg"><g clip-path="url(#clip0)"><path d="M47.843 33.992c1.025-1.307 1.517-2.708 1.454-4.15-.063-1.59-.774-2.834-1.36-3.598.68-1.694.942-4.36-1.327-6.43-1.663-1.516-4.486-2.196-8.396-2.008-2.75.126-5.05.638-5.145.66h-.01c-.523.093-1.077.208-1.642.334-.042-.67.073-2.332 1.307-6.075 1.464-4.454 1.38-7.863-.272-10.142C30.717.188 27.946 0 27.13 0c-.784 0-1.505.324-2.018.92-1.16 1.349-1.024 3.837-.878 4.988-1.38 3.7-5.249 12.777-8.521 15.296-.063.042-.115.095-.168.147a11.232 11.232 0 00-2.05 3.074 4.314 4.314 0 00-2.07-.523H5.049a4.353 4.353 0 00-4.35 4.35v16.99a4.353 4.353 0 004.35 4.35h6.378a4.34 4.34 0 002.51-.794l2.456.292c.377.053 7.068.9 13.938.764 1.244.094 2.415.146 3.503.146 1.871 0 3.502-.146 4.862-.44 3.2-.679 5.384-2.038 6.493-4.035.847-1.527.847-3.043.71-4.005 2.081-1.882 2.447-3.963 2.374-5.426a7.064 7.064 0 00-.428-2.102zM5.048 46.77c-.847 0-1.527-.69-1.527-1.526V28.24c0-.847.69-1.526 1.527-1.526h6.378c.847 0 1.526.69 1.526 1.526v16.991c0 .847-.69 1.527-1.526 1.527H5.048v.01zm40.119-14c-.44.46-.523 1.16-.188 1.704 0 .01.428.742.48 1.746.074 1.37-.585 2.583-1.965 3.618a1.425 1.425 0 00-.481 1.61c0 .01.45 1.39-.282 2.698-.701 1.254-2.259 2.154-4.622 2.655-1.892.408-4.465.482-7.622.23h-.147c-6.723.147-13.52-.731-13.592-.742h-.01l-1.057-.125c.063-.293.094-.607.094-.92V28.24c0-.45-.073-.888-.198-1.296.188-.7.71-2.259 1.944-3.587 4.695-3.722 9.285-16.28 9.484-16.823.084-.22.105-.46.063-.7-.178-1.172-.115-2.604.136-3.033.554.01 2.049.167 2.948 1.412 1.067 1.474 1.025 4.109-.125 7.601-1.757 5.322-1.903 8.124-.513 9.358.69.617 1.61.648 2.28.408a29.499 29.499 0 011.819-.366c.042-.01.094-.02.136-.031 3.21-.7 8.96-1.13 10.958.69 1.694 1.547.491 3.597.355 3.816-.387.586-.272 1.349.251 1.82.01.01 1.108 1.045 1.16 2.436.043.93-.397 1.882-1.306 2.823z" fill="#2E2F22"/></g><defs><clipPath id="clip0"><path fill="#fff" d="M0 0h50v50H0z"/></clipPath></defs></svg>