<svg width="50" height="50" fill="none" xmlns="http://www.w3.org/2000/svg"><g clip-path="url(#clip0)"><path d="M50 10.055c-3.145.145-3.077.133-3.432.163l1.863-5.32s-5.815 2.14-7.289 2.522c-3.87-3.48-9.625-3.633-13.739-1.105-3.368 2.071-5.177 5.628-4.574 9.784-6.556-.91-12.08-4.017-16.441-9.256l-1.38-1.657-1.03 1.893c-1.303 2.392-1.736 5.127-1.219 7.7a11.062 11.062 0 001.072 3.006l-1.183-.458-.14 1.977c-.143 2.008.526 4.353 1.788 6.27.356.541.814 1.134 1.394 1.72l-.611-.095.746 2.266c.98 2.977 3.017 5.28 5.661 6.56-2.64 1.12-4.773 1.835-8.279 2.988L0 40.068l2.962 1.62c1.13.617 5.121 2.68 9.065 3.298 8.766 1.375 18.636.256 25.28-5.729 5.597-5.04 7.433-12.21 7.052-19.67-.058-1.13.252-2.208.871-3.036 1.241-1.657 4.762-6.485 4.77-6.496zm-7.112 4.741c-1.03 1.374-1.545 3.128-1.452 4.94.385 7.526-1.663 13.362-6.087 17.346-5.168 4.655-13.503 6.481-22.868 5.012-1.697-.266-3.45-.861-4.9-1.456 2.94-1.011 5.209-1.912 8.875-3.647l5.117-2.422-5.65-.362c-2.706-.173-4.96-1.485-6.345-3.614a10.14 10.14 0 002.151-.358l5.388-1.501-5.433-1.33c-2.64-.647-4.145-2.227-4.943-3.439a8.287 8.287 0 01-1.07-2.363c.544.146 1.18.25 2.203.351l5.03.498-3.985-3.108c-2.871-2.24-4.022-5.604-3.178-8.838C14.7 19.8 25.22 19.1 26.28 19.345c-.233-2.263-.24-2.268-.3-2.484-1.357-4.794 1.616-7.228 2.956-8.052 2.8-1.72 7.245-1.98 10.323.855.665.612 1.564.852 2.405.643a20.248 20.248 0 001.983-.602l-1.264 3.607 1.613.002-1.108 1.482z" fill="#2E2F22"/></g><defs><clipPath id="clip0"><path fill="#fff" d="M0 0h50v50H0z"/></clipPath></defs></svg>