<svg width="50" height="50" fill="none" xmlns="http://www.w3.org/2000/svg"><g clip-path="url(#clip0)"><path d="M44.506 29.893l-.027-.025c-.427-.394-1.735-1.667-2.176-2.223-.517-.694-.398-1.149-.01-1.83.49-.861 1.472-2.182 2.512-3.58 3.33-4.478 5.479-7.578 5.036-9.78l-.238-1.176-12.296.006c-.043.116-.685 2.934-3.392 7.734-1.964 3.48-3.252 4.573-3.705 4.766l-.07-.02c-.148-.183-.406-.675-.512-1.944-.11-1.328-.012-2.937.082-4.493.111-1.824.207-3.4-.022-4.527l-.373-1.836c-.452-.072-2.104-.71-6.707-.758-3.985-.04-5.156.535-5.731 1.042l-1.902 1.678 2.404.809c.915.308 1.218.663 1.467 2.424.163 1.147.248 3.075.073 4.797-.253 2.468-.857 2.928-.888 2.952-.105-.035-.988-.422-2.52-3.663-1.064-2.248-1.997-4.907-2.678-6.85-.78-2.223-.64-1.75-1.035-2.8H-.098l.77 1.991c3.21 8.31 6.154 14.799 10.095 19.46 4.353 5.149 9.764 7.845 17.053 7.845h1.464v-1.465c0-1.369.114-2.355.357-3.103.148-.455.345-.832.552-1.227.308-.581.608-.83.772-.867.15-.034.41.075.7.291.833.621 1.494 1.437 2.194 2.3 1.009 1.247 2.053 2.535 3.709 3.378.904.461 2.563.694 3.476.694h8.858l-.063-1.526c-.093-2.28-1.888-5.132-5.333-8.474zm-3.405 7.07h-.024c-.63.01-1.83-.197-2.18-.374-1.1-.561-1.87-1.511-2.762-2.611-.782-.967-1.591-1.966-2.718-2.805-.91-.68-1.738-.878-2.395-.878a3.16 3.16 0 00-.7.077c-.763.172-1.854.72-2.72 2.36-.245.467-.523.995-.747 1.686-.236.723-.382 1.527-.452 2.505-5.492-.312-9.778-2.485-13.4-6.768-3.366-3.982-6.014-9.552-8.819-16.63h5.589l.296.841c.734 2.095 1.74 4.963 2.925 7.41 1.698 3.502 3.247 5.064 5.026 5.064.887 0 1.683-.376 2.302-1.088.881-1.015 1.393-2.691 1.565-5.123.135-1.918.01-3.828-.14-4.88-.122-.866-.297-1.775-.724-2.59 1.82-.081 4.258.048 5.803.27.14.764.049 2.267-.04 3.72-.214 3.513-.435 7.137 1.424 8.832.327.298.674.458.684.465l.946.29c.365-.112 2.48.96 6.483-6.027 1.283-2.239 2.477-4.819 3.12-6.504 1.492-.003 6.574.003 7.17.004-.845 1.86-2.85 4.515-4.16 6.277-1.141 1.536-2.127 2.863-2.706 3.879-1.075 1.888-.894 3.57.225 5.055l.018.023c.625.795 2.168 2.267 2.488 2.564 2.319 2.251 3.436 3.868 3.968 4.955H41.1z" fill="#2E2F22"/></g><defs><clipPath id="clip0"><path fill="#fff" d="M0 0h50v49.902H0z"/></clipPath></defs></svg>