<svg width="275" height="100" fill="none" xmlns="http://www.w3.org/2000/svg"><g filter="url(#filter0_d)"><path fill="#fff" d="M5 5h264v90H5z"/></g><path d="M25.549 41H13.156c-.633 0-1.324-.111-2.074-.334a6.274 6.274 0 01-2.092-1.09c-.633-.516-1.166-1.178-1.6-1.986-.421-.82-.632-1.822-.632-3.006v-6.188c0-.433.047-.89.14-1.37a7.26 7.26 0 01.475-1.424c.211-.48.48-.938.809-1.372.34-.433.744-.814 1.213-1.142a6.349 6.349 0 011.652-.791c.621-.2 1.324-.299 2.11-.299h12.392v4.57H13.156c-.597 0-1.054.153-1.37.457-.306.305-.458.774-.458 1.407v6.152c0 .598.158 1.055.475 1.371.316.317.779.475 1.388.475H25.55V41zm20.408-14.432H35.674c-.621 0-1.09.159-1.406.475-.317.305-.475.756-.475 1.354V41h-4.57V28.396c0-.785.1-1.488.299-2.109a6.057 6.057 0 01.79-1.635c.34-.48.727-.884 1.16-1.213.434-.34.885-.615 1.354-.826a6.84 6.84 0 011.442-.457 6.597 6.597 0 011.37-.158h10.319v4.57zm23.396 1.723c0 .633-.11 1.318-.334 2.057a6.15 6.15 0 01-1.09 2.039c-.492.62-1.142 1.142-1.95 1.564-.797.422-1.77.633-2.919.633h-8.244v-4.342h8.244c.622 0 1.102-.187 1.442-.562.34-.387.51-.862.51-1.424 0-.598-.194-1.067-.58-1.406-.375-.34-.832-.51-1.372-.51h-8.244c-.62 0-1.101.193-1.441.58-.34.375-.51.844-.51 1.406v6.381c0 .61.188 1.084.563 1.424.387.34.861.51 1.424.51h8.209V41h-8.245c-.632 0-1.318-.111-2.056-.334a6.321 6.321 0 01-2.04-1.072c-.62-.504-1.142-1.154-1.564-1.951-.422-.809-.633-1.788-.633-2.936v-6.416c0-.633.112-1.313.334-2.039a6.091 6.091 0 011.073-2.04c.504-.632 1.154-1.16 1.95-1.581.81-.422 1.788-.633 2.936-.633h8.244c.633 0 1.313.111 2.04.334a5.933 5.933 0 012.039 1.09c.633.492 1.16 1.142 1.582 1.951.422.797.632 1.77.632 2.918zm22.553 6.416c0 .633-.111 1.318-.334 2.057a6.152 6.152 0 01-1.09 2.039c-.492.62-1.142 1.142-1.95 1.564-.798.422-1.77.633-2.919.633H77.37c-.633 0-1.318-.111-2.056-.334a6.321 6.321 0 01-2.04-1.072c-.62-.504-1.142-1.154-1.564-1.951-.422-.809-.633-1.788-.633-2.936 0-.633.112-1.318.334-2.057a6.09 6.09 0 011.072-2.039c.504-.633 1.155-1.16 1.952-1.582.808-.422 1.787-.633 2.935-.633h8.244v4.36H77.37c-.621 0-1.101.193-1.441.58-.34.375-.51.844-.51 1.406 0 .598.193 1.067.58 1.406.398.329.867.493 1.406.493h8.21c.62 0 1.1-.188 1.44-.563.34-.375.51-.844.51-1.406V28.29c0-.598-.187-1.072-.562-1.424-.363-.351-.826-.527-1.389-.527H75.576v-4.342h10.037c.633 0 1.313.111 2.04.334a5.933 5.933 0 012.038 1.09c.633.492 1.16 1.142 1.582 1.951.422.797.633 1.77.633 2.918v6.416zm21.112-8.139h-7.981V41h-4.623V26.568h-5.941v-4.57h5.941v-6.205h4.623v6.205h7.981v4.57zm23.378 1.723c0 .633-.111 1.318-.334 2.057a6.135 6.135 0 01-1.089 2.039c-.493.62-1.143 1.142-1.952 1.564-.796.422-1.769.633-2.917.633h-8.245v-4.342h8.245c.621 0 1.101-.187 1.441-.562.34-.387.51-.862.51-1.424 0-.598-.194-1.067-.58-1.406-.375-.34-.832-.51-1.371-.51h-8.245c-.621 0-1.101.193-1.441.58-.34.375-.51.844-.51 1.406v6.381c0 .61.188 1.084.563 1.424.386.34.861.51 1.424.51h8.209V41h-8.245c-.632 0-1.318-.111-2.056-.334a6.309 6.309 0 01-2.039-1.072c-.621-.504-1.143-1.154-1.565-1.951-.422-.809-.633-1.788-.633-2.936v-6.416c0-.633.112-1.313.334-2.039a6.084 6.084 0 011.073-2.04c.504-.632 1.154-1.16 1.951-1.581.808-.422 1.787-.633 2.935-.633h8.245c.632 0 1.312.111 2.039.334a5.934 5.934 0 012.039 1.09c.632.492 1.16 1.142 1.582 1.951.422.797.632 1.77.632 2.918zm23.924 6.293c0 .785-.099 1.494-.299 2.127a6.314 6.314 0 01-.791 1.652 5.646 5.646 0 01-1.142 1.213 6.82 6.82 0 01-1.371.809c-.469.21-.949.369-1.442.474a7.14 7.14 0 01-1.371.141h-8.244c-.785 0-1.488-.1-2.109-.299a6.363 6.363 0 01-1.653-.79 6.01 6.01 0 01-1.212-1.161 6.969 6.969 0 01-.809-1.353 7.718 7.718 0 01-.475-1.442 7.418 7.418 0 01-.14-1.371v-6.188c0-1.171.211-2.162.633-2.97.433-.82.966-1.483 1.599-1.986a6.119 6.119 0 012.092-1.108c.75-.223 1.441-.334 2.074-.334h8.244v4.57h-8.209c-.609 0-1.072.159-1.388.475-.317.305-.475.756-.475 1.354v6.152c0 .62.152 1.09.457 1.406.316.317.773.475 1.371.475h8.244c.621 0 1.084-.158 1.389-.475.305-.316.457-.773.457-1.371v-20.62h4.57v20.62zm37.02 0c0 .434-.053.89-.158 1.371-.094.48-.246.961-.457 1.442-.211.468-.487.92-.827 1.353a5.46 5.46 0 01-1.212 1.16 6.062 6.062 0 01-1.635.791c-.621.2-1.324.299-2.11.299h-8.244c-.433 0-.89-.047-1.371-.14a7.68 7.68 0 01-1.441-.475 7.018 7.018 0 01-1.354-.809 6.038 6.038 0 01-1.16-1.213 6.346 6.346 0 01-.791-1.652c-.199-.633-.299-1.342-.299-2.127v-20.62h4.571v20.62c0 .563.175 1.014.527 1.353.351.329.791.493 1.318.493h8.244c.575 0 1.02-.17 1.336-.51.328-.34.493-.785.493-1.336v-6.188c0-.574-.17-1.019-.51-1.335-.34-.329-.78-.493-1.319-.493h-8.244v-4.57h8.244c.434 0 .891.053 1.371.158.481.094.956.246 1.424.457.481.211.938.487 1.371.826a5.13 5.13 0 011.143 1.213c.328.47.592 1.014.791 1.635.199.621.299 1.324.299 2.11v6.187zm24.855 8.244c0 .785-.099 1.488-.299 2.11a5.973 5.973 0 01-.791 1.652c-.328.48-.709.885-1.142 1.213-.434.34-.891.615-1.371.826a6.57 6.57 0 01-1.424.457 6.43 6.43 0 01-1.371.158h-8.244v-4.57h8.244c.609 0 1.066-.158 1.371-.475.305-.316.457-.773.457-1.37V21.997h4.57v20.83zM215.797 41h-8.244c-.657 0-1.36-.111-2.11-.334a6.314 6.314 0 01-2.074-1.09c-.644-.516-1.178-1.178-1.599-1.986-.422-.82-.633-1.822-.633-3.006V21.998h4.57v12.586c0 .598.158 1.055.475 1.371.316.317.785.475 1.406.475h8.209V41zM32.844 85.049c0 .328-.065.633-.194.914a2.205 2.205 0 01-1.213 1.213c-.28.117-.58.176-.896.176-.281 0-.568-.053-.861-.159a2.01 2.01 0 01-.756-.51l-16.7-17.437V87h-4.57V63.744c0-.469.13-.89.387-1.266a2.49 2.49 0 011.02-.86 2.269 2.269 0 011.335-.124c.457.082.85.293 1.178.633l16.7 17.42V61.793h4.57v23.256zM42.3 64.096h-4.57v-4.131h4.57v4.13zM42.3 87h-4.57V67.998h4.57V87zm26.718 0h-6.591l-9.211-8.894c-.516-.47-.756-1.055-.72-1.758.023-.329.105-.633.245-.914.153-.293.358-.54.615-.739l8.35-6.732h7.312l-10.757 8.666L69.019 87zm-17.683 0h-4.57V59.965h4.57V87zm24.89-22.904h-4.57v-4.131h4.57v4.13zm0 22.904h-4.57V67.998h4.57V87zM97.9 72.568h-7.98V87h-4.623V72.568h-5.941v-4.57h5.94v-6.205h4.624v6.205h7.98v4.57zm21.534 8.139c0 .633-.112 1.318-.334 2.057a6.156 6.156 0 01-1.09 2.039c-.492.62-1.143 1.142-1.951 1.564-.797.422-1.77.633-2.918.633h-8.245c-.632 0-1.318-.111-2.056-.334a6.319 6.319 0 01-2.039-1.072c-.621-.504-1.143-1.154-1.565-1.951-.422-.809-.633-1.787-.633-2.936 0-.633.112-1.318.335-2.057a6.088 6.088 0 011.072-2.039c.504-.633 1.154-1.16 1.951-1.582.809-.422 1.787-.632 2.935-.632h8.245v4.359h-8.245c-.621 0-1.101.193-1.441.58-.34.375-.51.844-.51 1.406 0 .598.194 1.067.58 1.406.399.329.868.493 1.407.493h8.209c.621 0 1.101-.188 1.441-.563.34-.375.51-.844.51-1.406V74.29c0-.598-.188-1.072-.563-1.424-.363-.351-.826-.527-1.388-.527h-10.037v-4.342h10.037c.632 0 1.312.111 2.039.334a5.934 5.934 0 012.039 1.09c.633.492 1.16 1.142 1.582 1.951.422.797.633 1.77.633 2.918v6.416zm41.238-8.367c0 1.043-.129 1.974-.387 2.795a7.833 7.833 0 01-1.055 2.18 7.274 7.274 0 01-1.511 1.6 8.738 8.738 0 01-1.811 1.089 8.754 8.754 0 01-1.898.615 9.005 9.005 0 01-1.793.194h-10.336v-4.57h10.336a5.405 5.405 0 001.582-.352c.48-.2.89-.463 1.23-.791a3.41 3.41 0 00.791-1.178c.188-.469.282-.996.282-1.582v-2.074a6.01 6.01 0 00-.37-1.582 3.66 3.66 0 00-.773-1.23 3.239 3.239 0 00-1.16-.792c-.457-.2-.985-.299-1.582-.299h-10.301c-.609 0-1.072.159-1.389.475-.316.316-.474.773-.474 1.371V87h-4.571V68.209c0-1.172.211-2.168.633-2.988.434-.82.967-1.483 1.6-1.987a6.272 6.272 0 012.092-1.09c.75-.234 1.441-.351 2.074-.351h10.336c1.031 0 1.957.135 2.777.404a7.58 7.58 0 012.162 1.055 6.802 6.802 0 011.6 1.512 8.794 8.794 0 011.09 1.81 8.22 8.22 0 01.633 1.899c.128.633.193 1.23.193 1.793v2.074zm24.082 8.244c0 .785-.1 1.494-.299 2.127a6.346 6.346 0 01-.791 1.652 5.626 5.626 0 01-1.143 1.213c-.433.328-.89.598-1.371.809a7.15 7.15 0 01-1.441.474 7.17 7.17 0 01-1.371.141h-8.244c-.633 0-1.324-.111-2.074-.334a6.27 6.27 0 01-2.092-1.09c-.633-.515-1.166-1.178-1.6-1.986-.422-.82-.633-1.822-.633-3.006v-6.188c0-1.171.211-2.162.633-2.97.434-.82.967-1.483 1.6-1.987a6.11 6.11 0 012.092-1.107c.75-.223 1.441-.334 2.074-.334h8.244c1.172 0 2.168.211 2.988.633.82.422 1.483.955 1.986 1.6a6.074 6.074 0 011.09 2.074c.235.75.352 1.447.352 2.091v6.188zm-4.57-6.152c0-.633-.159-1.102-.475-1.407-.316-.304-.773-.457-1.371-.457h-8.209c-.609 0-1.072.159-1.389.475-.316.305-.474.756-.474 1.353v6.188c0 .598.158 1.055.474 1.371.317.317.78.475 1.389.475h8.209c.621 0 1.084-.159 1.389-.475.304-.316.457-.773.457-1.371v-6.152zm29.425 6.152c0 .785-.099 1.494-.298 2.127a6.378 6.378 0 01-.791 1.652 5.65 5.65 0 01-1.143 1.213 6.82 6.82 0 01-1.371.809 7.3 7.3 0 01-1.424.474 7.14 7.14 0 01-1.371.141h-8.244v-4.57h8.244c.609 0 1.066-.159 1.371-.475.305-.316.457-.773.457-1.371v-6.152c0-.633-.158-1.102-.475-1.407-.304-.304-.755-.457-1.353-.457h-8.209c-.621 0-1.09.159-1.406.475-.317.305-.475.756-.475 1.353v18.545h-4.57V74.397c0-.786.099-1.489.299-2.11a6.024 6.024 0 01.791-1.635c.339-.48.726-.884 1.16-1.213a6.55 6.55 0 011.353-.826 6.846 6.846 0 011.442-.457 6.572 6.572 0 011.371-.158h8.244c.785 0 1.488.1 2.109.299.621.2 1.166.463 1.635.79.481.329.885.71 1.213 1.144.34.433.615.89.826 1.37.211.47.363.944.457 1.424.106.48.158.938.158 1.371v6.188zm24.575 0c0 .785-.1 1.494-.299 2.127a6.346 6.346 0 01-.791 1.652 5.626 5.626 0 01-1.143 1.213c-.433.328-.89.598-1.371.809a7.17 7.17 0 01-1.441.474 7.156 7.156 0 01-1.371.141h-8.245c-.632 0-1.324-.111-2.074-.334a6.28 6.28 0 01-2.092-1.09c-.632-.515-1.166-1.178-1.599-1.986-.422-.82-.633-1.822-.633-3.006v-6.188c0-1.171.211-2.162.633-2.97.433-.82.967-1.483 1.599-1.987a6.119 6.119 0 012.092-1.107c.75-.223 1.442-.334 2.074-.334h8.245c1.171 0 2.168.211 2.988.633.82.422 1.482.955 1.986 1.6a6.091 6.091 0 011.09 2.074c.234.75.352 1.447.352 2.091v6.188zm-4.571-6.152c0-.633-.158-1.102-.474-1.407-.317-.304-.774-.457-1.371-.457h-8.209c-.61 0-1.073.159-1.389.475-.316.305-.475.756-.475 1.353v6.188c0 .598.159 1.055.475 1.371.316.317.779.475 1.389.475h8.209c.621 0 1.084-.159 1.388-.475.305-.316.457-.773.457-1.371v-6.152zm31.149-6.434a47.516 47.516 0 01-1.811 4.746 33.921 33.921 0 01-2.39 4.465 27.407 27.407 0 01-3.006 3.92 19.37 19.37 0 01-3.674 3.111 18.066 18.066 0 01-4.377 2.057c-1.57.492-3.275.738-5.115.738-.317 0-.616-.058-.897-.176a2.422 2.422 0 01-.738-.474 2.315 2.315 0 01-.492-.72 2.311 2.311 0 01-.176-.897v-16.77h4.57v14.291c1.114 0 2.18-.24 3.199-.72a12.691 12.691 0 002.918-1.9 18.517 18.517 0 002.532-2.706 27.039 27.039 0 002.091-3.094 27.488 27.488 0 001.547-3.129c.434-1.02.756-1.933.967-2.742h4.852z" fill="#999"/><defs><filter id="filter0_d" x="0" y="0" width="274" height="100" filterUnits="userSpaceOnUse" color-interpolation-filters="sRGB"><feFlood flood-opacity="0" result="BackgroundImageFix"/><feColorMatrix in="SourceAlpha" values="0 0 0 0 0 0 0 0 0 0 0 0 0 0 0 0 0 0 127 0"/><feMorphology radius="5" operator="dilate" in="SourceAlpha" result="effect1_dropShadow"/><feOffset/><feColorMatrix values="0 0 0 0 0.595833 0 0 0 0 0.595833 0 0 0 0 0.595833 0 0 0 1 0"/><feBlend in2="BackgroundImageFix" result="effect1_dropShadow"/><feBlend in="SourceGraphic" in2="effect1_dropShadow" result="shape"/></filter></defs></svg>