<svg width="20" height="20" fill="none" xmlns="http://www.w3.org/2000/svg"><path d="M12.891.572c5.28 0 6.537 1.257 6.537 6.537v5.782c0 5.28-1.257 6.538-6.537 6.538H7.108c-5.28 0-6.537-1.257-6.537-6.537V7.108c0-5.28 1.257-6.537 6.537-6.537h5.783zM5.482 6.464H4.107c-.393 0-.471.185-.471.39 0 .363.466 2.17 2.17 4.559 1.136 1.631 2.737 2.516 4.194 2.516.874 0 .982-.197.982-.535V12.16c0-.393.083-.471.36-.471.204 0 .553.102 1.369.888.932.932 1.086 1.35 1.61 1.35h1.375c.393 0 .59-.196.476-.583-.124-.387-.569-.947-1.16-1.612-.32-.378-.8-.786-.946-.99-.204-.262-.146-.38 0-.612l.024-.035c.207-.294 1.663-2.382 1.826-3.126.087-.292 0-.506-.416-.506h-1.375c-.35 0-.51.185-.598.39 0 0-.7 1.704-1.69 2.81-.32.321-.466.423-.641.423-.087 0-.214-.102-.214-.393V6.97c0-.35-.101-.506-.393-.506H8.43c-.219 0-.35.163-.35.316 0 .332.495.408.546 1.34v2.025c0 .444-.08.525-.255.525-.466 0-1.6-1.712-2.273-3.671-.131-.38-.264-.535-.615-.535z" fill="#000"/></svg>