<svg height="512pt" viewBox="0 -21 512 512" width="512pt" xmlns="http://www.w3.org/2000/svg"><path d="m236.035156 351.09375c0 65.175781-52.839844 118.015625-118.019531 118.015625-65.175781 0-118.015625-52.839844-118.015625-118.015625 0-65.179688 52.839844-118.019531 118.015625-118.019531 65.179687 0 118.019531 52.839843 118.019531 118.019531zm0 0" fill="#ffd46a"/><path d="m204.542969 351.09375c0 47.785156-38.738281 86.523438-86.527344 86.523438-47.785156 0-86.523437-38.738282-86.523437-86.523438 0-47.789062 38.738281-86.527344 86.523437-86.527344 47.789063 0 86.527344 38.738282 86.527344 86.527344zm0 0" fill="#ffa92d"/><path d="m140.367188 310.253906h-44.699219c-10.210938 0-18.488281 8.277344-18.488281 18.488282v44.699218c0 10.210938 8.277343 18.488282 18.488281 18.488282h44.699219c10.210937 0 18.488281-8.277344 18.488281-18.488282v-44.699218c0-10.210938-8.277344-18.488282-18.488281-18.488282zm0 0" fill="#ffd46a"/><path d="m512 351.09375c0 65.175781-52.839844 118.015625-118.015625 118.015625-65.179687 0-118.019531-52.839844-118.019531-118.015625 0-65.179688 52.839844-118.019531 118.019531-118.019531 65.175781 0 118.015625 52.839843 118.015625 118.019531zm0 0" fill="#ffd46a"/><path d="m480.507812 351.09375c0 47.785156-38.738281 86.523438-86.523437 86.523438-47.789063 0-86.527344-38.738282-86.527344-86.523438 0-47.789062 38.738281-86.527344 86.527344-86.527344 47.785156 0 86.523437 38.738282 86.523437 86.527344zm0 0" fill="#ffa92d"/><path d="m416.332031 310.253906h-44.699219c-10.210937 0-18.488281 8.277344-18.488281 18.488282v44.699218c0 10.210938 8.277344 18.488282 18.488281 18.488282h44.699219c10.210938 0 18.488281-8.277344 18.488281-18.488282v-44.699218c0-10.210938-8.277343-18.488282-18.488281-18.488282zm0 0" fill="#ffd46a"/><path d="m375.511719 118.015625c0 65.179687-52.839844 118.019531-118.019531 118.019531-65.175782 0-118.015626-52.839844-118.015626-118.019531 0-65.175781 52.839844-118.015625 118.015626-118.015625 65.179687 0 118.019531 52.839844 118.019531 118.015625zm0 0" fill="#ffd46a"/><path d="m344.019531 118.015625c0 47.789063-38.738281 86.527344-86.527343 86.527344-47.785157 0-86.523438-38.738281-86.523438-86.527344 0-47.785156 38.738281-86.523437 86.523438-86.523437 47.789062 0 86.527343 38.738281 86.527343 86.523437zm0 0" fill="#ffa92d"/><path d="m279.84375 77.179688h-44.699219c-10.210937 0-18.492187 8.277343-18.492187 18.488281v44.699219c0 10.210937 8.28125 18.492187 18.492187 18.492187h44.699219c10.210938 0 18.488281-8.28125 18.488281-18.492187v-44.699219c0-10.210938-8.277343-18.488281-18.488281-18.488281zm0 0" fill="#ffd46a"/></svg>